<svg id="Ebene_1" data-name="Ebene 1" xmlns="http://www.w3.org/2000/svg" viewBox="0 0 566.93 566.93"><defs><style>.cls-1{fill:#33b298;}</style></defs><path class="cls-1" d="M482.93,17.49H84A66.71,66.71,0,0,0,17.49,84V482.93A66.71,66.71,0,0,0,84,549.44H482.93a66.71,66.71,0,0,0,66.51-66.51V84A66.71,66.71,0,0,0,482.93,17.49ZM389.31,461.72a183.9,183.9,0,0,1-74,15.63q-43.28,0-79.74-13.55T172.49,425q-26.58-25.28-41.44-61.24T116.2,283.46q0-44.29,14.85-80.26T172.49,142q26.58-25.28,63.07-38.83T315.3,89.58a196.59,196.59,0,0,1,32.58,2.86,176.73,176.73,0,0,1,33.35,9.12,148.91,148.91,0,0,1,31.54,16.68,126.18,126.18,0,0,1,27.1,25.54l-62.55,51.08a79.85,79.85,0,0,0-29.44-22.41q-17.47-7.83-40.4-7.82a101,101,0,0,0-76.35,33.62A115.25,115.25,0,0,0,208.71,236a135.91,135.91,0,0,0-8.08,47.43q0,26.07,8.08,47.69a118.28,118.28,0,0,0,22.16,37.53A100.16,100.16,0,0,0,264,393.44a95.66,95.66,0,0,0,40.92,8.86q25,0,44.3-10.42A88.22,88.22,0,0,0,381,362.69l67.76,50.55Q425.27,446.09,389.31,461.72Z"/></svg>