<svg id="Ebene_1" data-name="Ebene 1" xmlns="http://www.w3.org/2000/svg" viewBox="0 0 566.93 566.93"><defs><style>.cls-1{fill:#33b298;}</style></defs><path class="cls-1" d="M283.46,17.49c-146.89,0-266,119.08-266,266s119.08,266,266,266,266-119.08,266-266S430.36,17.49,283.46,17.49ZM368,449a170.69,170.69,0,0,1-68.72,14.52q-40.17,0-74-12.58t-58.56-36.06Q142,391.39,128.24,358t-13.79-74.53q0-41.11,13.79-74.52t38.47-56.86Q191.4,128.61,225.27,116t74-12.58a181.86,181.86,0,0,1,30.25,2.66,164,164,0,0,1,31,8.47,138.26,138.26,0,0,1,29.28,15.49A116.64,116.64,0,0,1,415,153.77L356.9,201.19a74.11,74.11,0,0,0-27.34-20.8q-16.23-7.26-37.51-7.26a93.77,93.77,0,0,0-70.89,31.21,107.12,107.12,0,0,0-20.81,35.09,126,126,0,0,0-7.5,44q0,24.21,7.5,44.28a109.94,109.94,0,0,0,20.56,34.85,93.18,93.18,0,0,0,30.73,23,88.81,88.81,0,0,0,38,8.23q23.24,0,41.14-9.68A81.91,81.91,0,0,0,360.29,357L423.2,404A131,131,0,0,1,368,449Z"/></svg>